<svg width="196" height="30" viewBox="0 0 196 30" fill="none" xmlns="http://www.w3.org/2000/svg">
    <path fill-rule="evenodd" clip-rule="evenodd" d="M6.64469 10H16.6098L16.6117 3.33307H6.64391L6.64469 10ZM6.64469 16.6661V26.6669H0V0H19.9341V16.6661H6.64469ZM196 10V26.6669H189.355V23.3264H186.034V26.6595H182.712V23.3264H186.034V20H182.712V10H186.034H196ZM186.034 16.6669V13.3331H189.355V16.6669H186.034ZM172.757 9.98585H176.079V10H179.39V26.6669H176.068V19.9987H172.746L172.626 26.6839L162.78 26.6669V10H169.424L169.424 19.9987H172.746L172.757 9.98585ZM152.814 10H156.136V23.3339H159.458V30H156.136V26.6669H142.848V10H149.492L149.493 23.3073H152.814V10ZM139.526 10V26.6669H136.204V23.3331H132.883V26.6669H126.238V10H139.526ZM136.204 20V13.3331H132.883V20H136.204ZM122.916 10V20H116.273V26.6669H109.628V10H122.916ZM119.594 16.6669V13.3331H116.273V16.6669H119.594ZM106.306 16.6661H102.985V26.6669H96.3406V16.6661H93.0186V10H106.306V16.6661ZM83.0536 23.3339H89.6967V26.6669H76.4089V10H89.6967V13.3331H83.0536V23.3339ZM66.4539 9.98585L73.0869 10V26.6669H69.765V19.9987H66.443V26.6649L63.121 26.6669H56.4764V10H63.1203L63.121 19.9987H66.443L66.4539 9.98585ZM53.1544 10V13.3331H46.5113V26.6669H39.8666V10H53.1544ZM36.5446 23.3339V26.6669H23.256V10H36.5438V20H29.9007V23.3339H36.5446ZM33.2219 16.6669V13.3331H29.9007V16.6669H33.2219Z" fill="white"/>
</svg>
