<svg width="64" height="64" viewBox="0 0 64 64" fill="none" xmlns="http://www.w3.org/2000/svg">
<path d="M34.9938 3.92426C34.0826 1.51773 33.608 0.264215 35.7581 0C44.2198 0 39.4152 14.658 36.7926 15.3504C37.3598 10.1732 35.9409 6.42582 34.9938 3.92426Z" fill="#BCD1AC"/>
<path d="M32.0607 31.2748C31.1571 16.6232 25.082 -8.45795 7.81521 8.56901C4.95506 11.3888 -1.97186 21.2971 1.80235 21.2971C8.80767 21.1196 13.0345 21.1843 19.723 24.0361C22.3842 25.1717 30.0773 29.7993 31.5094 31.7392C16.6954 32.6378 -8.62335 38.6502 8.5797 55.7228C11.4302 58.5522 21.446 65.4047 21.446 61.6711C21.2674 54.7418 21.332 50.5596 24.2148 43.9429C25.349 41.3415 29.9299 33.8799 31.9304 32.3363C31.9317 32.374 31.9342 32.414 31.9378 32.4565C32.8413 47.1082 38.9172 72.1901 56.184 55.1631C59.0442 52.3425 65.9711 42.4343 62.1961 42.4343C55.1916 42.6118 50.9648 42.5478 44.2763 39.6952C41.6139 38.5603 33.92 33.9309 32.4893 31.9922C47.3024 31.0937 72.6228 25.0814 55.4195 8.00857C52.5682 5.17914 42.5533 -1.67337 42.5533 2.0603C42.7319 8.99037 42.6672 13.1717 39.7836 19.7884C38.6501 22.3901 34.0684 29.853 32.0682 31.3956C32.0668 31.3577 32.0643 31.3175 32.0607 31.2748Z" fill="#BCD1AC"/>
<path d="M29.0054 59.8071C29.9166 62.2138 30.3913 63.4676 28.2411 63.7322C19.7794 63.7322 24.5841 49.0741 27.2066 48.3818C26.6394 53.5584 28.0582 57.3055 29.0054 59.8071Z" fill="#BCD1AC"/>
</svg>
