<svg width="66" height="63" viewBox="0 0 66 63" fill="none" xmlns="http://www.w3.org/2000/svg">
<path d="M6.02247 23.5995C4.9625 24.3904 4.2533 24.9195 4.01389 24.9195C2.90489 24.9195 2.42127 23.8762 2.46435 23.0307C2.65908 19.2153 6.26412 14.5467 8.46032 11.7339C25.1988 -9.70247 61.7084 -0.172947 65.2778 27.3957C67.2327 42.5072 56.0189 57.0555 42.2286 61.9497C32.367 65.4489 5.9707 59.9386 15.9001 49.3748C16.1759 49.0748 16.4682 48.7586 16.7742 48.4274C22.8517 41.8519 34.3726 29.3867 30.1 21.0429C29.6404 20.1453 28.9999 19.4357 28.2001 18.837C20.3154 12.9355 10.3054 20.404 6.02247 23.5995Z" fill="#618CA3"/>
<path d="M8.22833 28.0835C18.2177 35.1625 0.5 45.2046 0.5 31.2262C0.5 29.089 0.918357 25.6699 2.91447 25.6699C3.91446 25.6699 7.51655 27.5792 8.22833 28.0835Z" fill="#618CA3"/>
</svg>
