<svg width="66" height="63" viewBox="0 0 66 63" fill="none" xmlns="http://www.w3.org/2000/svg">
<path d="M19.2243 15.451C18.2183 15.4385 17.2109 15.5379 13.6157 15.8793C13.6157 8.91947 22.1797 -2.19227 21.8928 0.378638C20.2911 4.89291 20.3327 5.19214 21.6924 14.9546C21.7207 15.1576 21.7495 15.3647 21.7789 15.576C20.494 15.5115 19.8594 15.4589 19.2243 15.451Z" fill="#171921"/>
<path d="M31.2341 36.8562C28.8742 34.1136 25.968 30.736 25.968 23.4061C25.968 19.2415 28.8364 7.84916 32.8543 4.68833C32.5463 18.5423 41.7051 28.1226 50.3982 37.2158C58.1335 45.307 65.5 53.0125 65.5 63H0.5C0.994605 60.8547 18.7066 28.0362 21.1951 27.3649C21.4125 27.7604 21.5465 28.4066 21.7139 29.2138C22.4121 32.5802 23.6909 38.7467 34.0202 41.2067C33.5962 39.6015 32.4929 38.3192 31.2341 36.8562Z" fill="#171921"/>
</svg>
