<svg width="64" height="64" viewBox="0 0 64 64" fill="none" xmlns="http://www.w3.org/2000/svg">
<path d="M34.9948 3.92426C34.0836 1.51773 33.609 0.264215 35.7591 0C44.2208 0 39.4161 14.658 36.7936 15.3504C37.3608 10.1732 35.9419 6.42582 34.9948 3.92426Z" fill="#171921"/>
<path d="M32.0616 31.2748C31.1581 16.6232 25.083 -8.45795 7.81619 8.56901C4.95604 11.3888 -1.97088 21.2971 1.80333 21.2971C8.80865 21.1196 13.0354 21.1843 19.7239 24.0361C22.3852 25.1717 30.0783 29.7993 31.5103 31.7392C16.6964 32.6378 -8.62237 38.6502 8.58068 55.7228C11.4311 58.5522 21.4469 65.4047 21.4469 61.6711C21.2683 54.7418 21.333 50.5596 24.2158 43.9429C25.35 41.3415 29.9308 33.8799 31.9314 32.3363C31.9327 32.374 31.9351 32.414 31.9387 32.4565C32.8423 47.1082 38.9182 72.1901 56.185 55.1631C59.0452 52.3425 65.9721 42.4343 62.1971 42.4343C55.1926 42.6118 50.9658 42.5478 44.2773 39.6952C41.6149 38.5603 33.9209 33.9309 32.4903 31.9922C47.3034 31.0937 72.6237 25.0814 55.4205 8.00857C52.5692 5.17914 42.5542 -1.67337 42.5542 2.0603C42.7328 8.99037 42.6682 13.1717 39.7846 19.7884C38.651 22.3901 34.0693 29.853 32.0691 31.3956C32.0678 31.3577 32.0653 31.3175 32.0616 31.2748Z" fill="#171921"/>
<path d="M29.0063 59.8071C29.9176 62.2138 30.3923 63.4676 28.2421 63.7322C19.7804 63.7322 24.5851 49.0741 27.2076 48.3818C26.6404 53.5584 28.0592 57.3055 29.0063 59.8071Z" fill="#171921"/>
</svg>
