<svg width="111" height="111" viewBox="0 0 111 111" xmlns="http://www.w3.org/2000/svg">
<path fill-rule="evenodd" clip-rule="evenodd" d="M0 50.2506L50.0365 0.213745H60.3514L110.388 50.2506V60.5651L60.3514 110.602H50.0365L0 60.5651V50.2506ZM49.8425 41.2038C49.8425 49.671 55.0431 51.1373 55.9705 54.6135C46.2236 52.316 47.0647 45.7268 46.2092 44.1863C44.3147 44.6919 30.834 69.4146 30.4572 71.0307H79.931C79.931 55.0518 54.6406 46.8266 55.0835 27.1035C52.0251 29.4845 49.8425 38.0666 49.8425 41.2038ZM40.4406 35.534C44.9046 35.1145 44.1265 35.1797 46.6536 35.3053C45.5546 27.491 45.496 27.3282 46.7402 23.8568C46.9591 21.9201 40.4406 30.291 40.4406 35.534Z" "/>
</svg>
