<svg width="111" height="112" viewBox="0 0 111 112" fill="none" xmlns="http://www.w3.org/2000/svg">
<path fill-rule="evenodd" clip-rule="evenodd" d="M50.2573 111.2L0.219727 61.1624V50.8476L50.2573 0.809998H60.5721L110.61 50.8476V61.1624L60.5721 111.2H50.2573ZM28.7788 49.9617C29.8877 49.9617 41.9656 37.6142 51.0041 44.3756C51.7392 44.9253 52.3277 45.5771 52.7501 46.4014C56.8741 54.4501 44.9862 66.6746 39.7012 72.4211C30.577 82.1219 54.8332 87.1826 63.8953 83.9691C76.5677 79.4747 86.8724 66.1136 85.0755 52.2356C81.7959 26.9174 48.2462 18.1654 32.8647 37.8521C30.8464 40.4353 27.5338 44.7232 27.3548 48.2272C27.3153 49.0037 27.7597 49.9617 28.7788 49.9617ZM25.5497 55.7535C25.5497 68.5908 41.831 59.3687 32.6513 52.8671C31.9973 52.4037 28.6873 50.6504 27.7683 50.6504C25.9341 50.6504 25.5497 53.7906 25.5497 55.7535Z" fill="#171921"/>
</svg>
