<svg width="112" height="111" viewBox="0 0 112 111" fill="none" xmlns="http://www.w3.org/2000/svg">
<path fill-rule="evenodd" clip-rule="evenodd" d="M0.805664 50.4346L50.8422 0.398041H61.1571L111.194 50.4346V60.7494L61.1571 110.786H50.8422L0.805664 60.7494V50.4346ZM52.7753 83.2251C56.5371 82.7574 50.9334 78.7218 51.888 69.9137C49.6381 70.5142 45.5168 83.2251 52.7753 83.2251ZM59.2239 27.9591C55.4621 28.4266 61.0658 32.4624 60.1112 41.2703C62.3611 40.6697 66.4827 27.9591 59.2239 27.9591ZM55.9469 56.1047C56.7222 68.8098 61.9341 90.5599 76.7462 75.7942C79.1996 73.3489 85.142 64.7569 81.904 64.7569C75.8952 64.9106 72.2689 64.8548 66.5312 62.3817C64.2478 61.3968 57.6482 57.3835 56.4208 55.7019C69.1288 54.9225 90.8482 49.7084 76.0904 34.9041C73.6447 32.4506 65.0528 26.5082 65.0528 29.7462C65.2064 35.755 65.151 39.3814 62.6776 45.119C61.7048 47.3756 57.7744 53.8461 56.0587 55.1836C56.0575 55.1509 56.0555 55.1166 56.0523 55.0796C55.2773 42.3742 50.0655 20.6244 35.2531 35.3897C32.7996 37.8354 26.8572 46.427 30.0952 46.427C36.1043 46.2737 39.7304 46.3292 45.4683 48.8026C47.7517 49.7872 54.3513 53.8005 55.5785 55.4821C42.8705 56.2614 21.1513 61.4756 35.9091 76.2802C38.3545 78.7337 46.9464 84.6761 46.9464 81.4381C46.7928 75.429 46.8483 71.8029 49.3216 66.0649C50.2947 63.8087 54.2251 57.3376 55.9406 56.0004C55.9417 56.0331 55.9437 56.0677 55.9469 56.1047Z" fill="#171921"/>
</svg>
