<?xml version="1.0" encoding="UTF-8"?>
<!DOCTYPE svg PUBLIC "-//W3C//DTD SVG 1.1//EN" "http://www.w3.org/Graphics/SVG/1.1/DTD/svg11.dtd">
<!-- Creator: CorelDRAW -->
<svg xmlns="http://www.w3.org/2000/svg" xml:space="preserve" width="210mm" height="297mm" version="1.1" style="shape-rendering:geometricPrecision; text-rendering:geometricPrecision; image-rendering:optimizeQuality; fill-rule:evenodd; clip-rule:evenodd"
viewBox="0 0 21000 29700"
 xmlns:xlink="http://www.w3.org/1999/xlink"
 xmlns:xodm="http://www.corel.com/coreldraw/odm/2003">
 <defs>
  <style type="text/css">
   <![CDATA[
    .fil0 {fill:#1F1B20}
   ]]>
  </style>
 </defs>
 <g id="Слой_x0020_1">
  <metadata id="CorelCorpID_0Corel-Layer"/>
  <path class="fil0" d="M5058.37 4408.2l1909.55 -1909.55 393.64 0 1909.55 1909.55 0 393.64 -1909.55 1909.55 -393.64 0 -1909.55 -1909.55 0 -393.64zm1902.14 -345.24c0,323.13 198.47,379.09 233.87,511.75 -371.98,-87.68 -339.88,-339.15 -372.53,-397.94 -72.29,19.3 -586.76,962.79 -601.14,1024.47l1888.07 0c0,-609.81 -965.16,-923.71 -948.26,-1676.4 -116.71,90.87 -200.01,418.39 -200.01,538.12zm-358.8 -216.39c170.36,-16.01 140.66,-13.51 237.1,-8.72 -41.94,-298.22 -44.17,-304.43 3.31,-436.91 8.35,-73.91 -240.41,245.54 -240.41,445.63z"/>
 </g>
</svg>
